<svg width="286" height="296" viewBox="0 0 286 296" fill="none" xmlns="http://www.w3.org/2000/svg">
<g filter="url(#filter0_d_2106_44)">
<path fill-rule="evenodd" clip-rule="evenodd" d="M140.201 17.3362C103.351 24.3186 74.1202 53.45 63.8714 93.4081C62.4117 99.0998 59.9126 114.991 58.3163 128.721C53.7811 167.752 47.4096 186.643 31.6411 207.808C19.0005 224.773 17.9526 228.174 22.3684 237.894C26.9804 248.045 40.2924 252.26 58.7136 249.404C70.2575 247.612 73.6462 249.024 84.3604 260.076C91.2461 267.179 93.6562 268.844 99.5123 270.546C108.41 273.131 115.063 272.233 127.853 266.723C140.562 261.248 145.477 261.246 156.82 266.707C167.734 271.964 171.732 272.831 178.29 271.358C183.24 270.247 185.203 269.099 198.354 259.628C205.169 254.719 208.228 254.422 217.121 257.8C238.258 265.828 251.32 254.316 259.957 220.049C265.036 199.896 266.636 181.347 265.783 152.466C264.133 96.6022 251.573 62.5975 224.027 39.422C214.591 31.4824 195.219 21.373 183.904 18.4833C173.075 15.7167 151.705 15.1565 140.201 17.3362ZM181.576 24.0252C221.829 34.3124 247.944 65.2266 256.649 112.89C260.098 131.777 261.021 177.95 258.332 197.153C254.434 224.99 248.469 241.501 239.329 249.752C235.274 253.415 233.56 254.145 229.029 254.145C226.04 254.145 220.696 253 217.153 251.599C207.97 247.968 203.301 248.932 192.726 256.643C177.124 268.019 173.682 268.511 159.075 261.452C146.344 255.3 141.743 255.19 127.522 260.705C114.061 265.926 110.051 266.762 103.315 265.753C98.6947 265.06 96.3625 263.502 87.6028 255.256C81.9453 249.93 75.8017 244.995 73.9508 244.289C71.7855 243.465 65.1204 243.307 55.2811 243.848C41.1368 244.627 39.593 244.494 34.8969 242.1C28.841 239.013 25.5804 233.517 26.4881 227.928C26.8452 225.73 30.6505 219.258 35.148 213.2C53.5496 188.411 59.575 170.379 64.5185 125.314C65.5688 115.737 67.7255 102.794 69.3096 96.5523C78.8686 58.8932 103.27 32.7562 136.992 24.0544C149.708 20.7726 168.803 20.7605 181.576 24.0252ZM130.849 68.5278C125.558 74.0246 123.005 75.4444 116.887 76.2919C113.051 76.8241 112.013 77.4865 112.013 79.4032C112.013 82.7263 119.522 83.334 125.508 80.4967C132.236 77.3051 138.472 70.9169 138 67.6973C137.387 63.5193 135.455 63.7434 130.849 68.5278ZM190.599 66.0156C185.614 72.0178 209.243 86.4891 215.524 81.2809C218.179 79.0781 216.391 76.3589 212.287 76.3589C207.455 76.3589 200.974 73.1856 197.583 69.1586C193.726 64.5775 192.32 63.9443 190.599 66.0156ZM136.656 87.0139C132.883 91.1736 120.783 97.5386 111.64 100.175C103.754 102.447 102.201 103.337 101.274 106.119C98.4693 114.527 103.918 127.133 112.986 133.218C131.414 145.581 155.223 133.147 155.258 111.144C155.273 101.972 151.938 94.8329 144.977 89.1328C142.122 86.7947 139.518 84.8829 139.188 84.8829C138.857 84.8829 137.718 85.8413 136.656 87.0139ZM186.672 88.2316C175.026 97.2464 171.833 110.946 178.386 123.783C183.026 132.872 195.799 139.381 205.837 137.771C219.808 135.53 229.564 124.745 229.586 111.517C229.598 103.643 228.932 102.86 220.458 100.805C212.085 98.7722 200.087 92.7055 195.989 88.4326C194.117 86.4806 192.228 84.8829 191.792 84.8829C191.355 84.8829 189.051 86.3892 186.672 88.2316ZM144.908 94.9863C152.5 102.573 154.268 120.143 147.303 118.794C145.518 118.449 145.094 117.098 145.012 111.496C144.902 103.978 142.947 100.746 136.479 97.4035L132.915 95.5623L135.867 93.2937C139.819 90.2579 140.26 90.3407 144.908 94.9863ZM195.348 93.4776C196.95 94.8122 198.047 96.0262 197.785 96.1772C197.522 96.3282 195.12 97.5472 192.447 98.8867C186.147 102.044 183.71 106.899 185.349 113.034C186.47 117.232 186.355 117.591 183.736 118.091C179.958 118.813 179.639 118.304 179.639 111.548C179.639 104.122 181.279 99.8681 186.046 94.9291C190.474 90.3407 191.404 90.1958 195.348 93.4776ZM128.985 102.626C133.266 106.905 128.688 113.026 123.284 110.248C119.302 108.201 121.557 100.96 126.244 100.75C126.698 100.73 127.931 101.574 128.985 102.626ZM198.395 103.453C200.117 106.198 198.085 109.694 194.453 110.233C190.936 110.757 188.26 105.365 190.624 102.517C192.605 100.132 196.615 100.616 198.395 103.453ZM225.588 108.855C226.323 110.768 225.125 117.681 223.657 119.992C222.816 121.317 221.707 121.339 217.599 120.109C212.643 118.625 212.581 118.536 213.307 113.992C213.713 111.456 213.49 107.789 212.811 105.843L211.578 102.306L218.271 104.771C221.954 106.126 225.246 107.963 225.588 108.855ZM117.289 107.599C116.433 110.692 116.464 112.939 117.386 114.963C119.154 118.84 119.113 118.979 116.197 118.979C114.813 118.979 112.526 119.596 111.115 120.351C107.436 122.319 105.1 118.71 105.562 111.77C105.913 106.505 106.041 106.355 111.404 104.927C114.419 104.124 117.254 103.395 117.702 103.308C118.152 103.22 117.965 105.152 117.289 107.599ZM139.295 113.337C140.348 114.606 140.226 115.377 138.783 116.574C136.454 118.505 133.855 116.469 134.964 113.581C135.867 111.231 137.469 111.141 139.295 113.337ZM207.055 115.326C207.055 116.312 206.096 117.303 204.923 117.53C203.426 117.817 202.79 117.16 202.79 115.326C202.79 113.492 203.426 112.834 204.923 113.122C206.096 113.348 207.055 114.339 207.055 115.326ZM145.28 122.199L148.085 122.949L145.28 125.954C136.757 135.082 121.303 135.962 112.311 127.831C110.164 125.889 110.185 125.76 112.875 124.268C116.416 122.303 119.331 122.257 124.388 124.084C127.72 125.289 129.085 125.198 132.394 123.553C136.67 121.427 140.783 120.994 145.28 122.199ZM196.834 123.312C199.956 124.925 201.495 124.987 207.133 123.726C213.827 122.229 219.849 123.381 219.849 126.16C219.849 128.47 211.185 132.564 204.926 133.209C197.896 133.935 189.281 130.877 184.983 126.132C183.095 124.046 183.034 123.542 184.562 122.576C187.264 120.868 192.74 121.195 196.834 123.312ZM107.932 143.919C103.123 149.393 101.965 153.776 104.249 157.862C108.126 164.799 117.578 161.443 117.403 153.191C117.294 148.034 114.82 140.615 113.01 140.013C112.309 139.779 110.024 141.537 107.932 143.919ZM212.095 144.896C209.722 151.105 209.502 158.367 211.632 160.134C217.544 165.038 224.059 161.377 224.059 153.15C224.059 148.258 218.728 139.68 215.688 139.68C214.808 139.68 213.191 142.028 212.095 144.896ZM221.059 153.293C221.064 154.417 220.187 156.217 219.111 157.292C214.974 161.426 212.235 154.799 215.036 147.433L216.317 144.07L218.684 147.659C219.986 149.634 221.056 152.168 221.059 153.293ZM113.309 148.689C114.572 153.717 113.47 157.303 110.532 157.721C106.803 158.25 105.579 153.221 108.394 148.927C110.972 144.995 112.365 144.927 113.309 148.689ZM156.196 151.933C151.243 154.547 147.281 159.518 148.535 161.545C149.823 163.629 152.23 163.004 155.236 159.808C158.764 156.055 165.329 153.806 169.651 154.87C171.458 155.314 174.672 157.347 176.793 159.385C180.733 163.174 183.294 163.142 183.294 159.304C183.294 157.001 179.492 153.026 175.15 150.792C171.007 148.66 161.292 149.244 156.196 151.933Z" fill="black"/>
<path fill-rule="evenodd" clip-rule="evenodd" d="M181.576 24.0252C221.829 34.3124 247.944 65.2266 256.649 112.89C260.098 131.777 261.021 177.95 258.332 197.153C254.434 224.99 248.469 241.501 239.329 249.752C235.274 253.415 233.56 254.145 229.029 254.145C226.04 254.145 220.696 253 217.153 251.599C207.97 247.968 203.301 248.932 192.726 256.643C177.124 268.019 173.682 268.511 159.075 261.452C146.344 255.3 141.743 255.19 127.522 260.705C114.061 265.926 110.051 266.762 103.315 265.753C98.6947 265.06 96.3625 263.502 87.6028 255.256C81.9453 249.93 75.8017 244.995 73.9508 244.289C71.7855 243.465 65.1204 243.307 55.2811 243.848C41.1368 244.627 39.593 244.494 34.8969 242.1C28.841 239.013 25.5804 233.517 26.4881 227.928C26.8452 225.73 30.6505 219.258 35.148 213.2C53.5496 188.411 59.575 170.379 64.5185 125.314C65.5688 115.737 67.7255 102.794 69.3096 96.5523C78.8686 58.8932 103.27 32.7562 136.992 24.0544C149.708 20.7726 168.803 20.7605 181.576 24.0252ZM116.887 76.2919C123.005 75.4444 125.558 74.0246 130.849 68.5278C135.455 63.7434 137.387 63.5193 138 67.6973C138.472 70.9169 132.236 77.3051 125.508 80.4967C119.522 83.334 112.013 82.7263 112.013 79.4032C112.013 77.4865 113.051 76.8241 116.887 76.2919ZM215.524 81.2809C209.243 86.4891 185.614 72.0178 190.599 66.0156C192.32 63.9443 193.726 64.5775 197.583 69.1586C200.974 73.1856 207.455 76.3589 212.287 76.3589C216.391 76.3589 218.179 79.0781 215.524 81.2809ZM111.64 100.175C120.783 97.5386 132.883 91.1736 136.656 87.0139C137.718 85.8413 138.857 84.8829 139.188 84.8829C139.518 84.8829 142.122 86.7947 144.977 89.1328C151.938 94.8329 155.273 101.972 155.258 111.144C155.223 133.147 131.414 145.581 112.986 133.218C103.918 127.133 98.4693 114.527 101.274 106.119C102.201 103.337 103.754 102.447 111.64 100.175ZM178.386 123.783C171.833 110.946 175.026 97.2464 186.672 88.2316C189.051 86.3892 191.355 84.8829 191.792 84.8829C192.228 84.8829 194.117 86.4806 195.989 88.4326C200.087 92.7055 212.085 98.7722 220.458 100.805C228.932 102.86 229.598 103.643 229.586 111.517C229.564 124.745 219.808 135.53 205.837 137.771C195.799 139.381 183.026 132.872 178.386 123.783ZM104.249 157.862C101.965 153.776 103.123 149.393 107.932 143.919C110.024 141.537 112.309 139.779 113.01 140.013C114.82 140.615 117.294 148.034 117.403 153.191C117.578 161.443 108.126 164.799 104.249 157.862ZM211.632 160.134C209.502 158.367 209.722 151.105 212.095 144.896C213.191 142.028 214.808 139.68 215.688 139.68C218.728 139.68 224.059 148.258 224.059 153.15C224.059 161.377 217.544 165.038 211.632 160.134ZM148.535 161.545C147.281 159.518 151.243 154.547 156.196 151.933C161.292 149.244 171.007 148.66 175.15 150.792C179.492 153.026 183.294 157.001 183.294 159.304C183.294 163.142 180.733 163.174 176.793 159.385C174.672 157.347 171.458 155.314 169.651 154.87C165.329 153.806 158.764 156.055 155.236 159.808C152.23 163.004 149.823 163.629 148.535 161.545Z" fill="white"/>
<path d="M117.289 107.599C116.433 110.692 116.464 112.939 117.386 114.963C119.154 118.84 119.113 118.979 116.197 118.979C114.813 118.979 112.526 119.596 111.115 120.351C107.436 122.319 105.1 118.71 105.562 111.77C105.913 106.505 106.041 106.355 111.404 104.927C114.419 104.124 117.254 103.395 117.702 103.308C118.152 103.22 117.965 105.152 117.289 107.599Z" fill="white"/>
<path d="M144.908 94.9863C152.5 102.573 154.268 120.143 147.303 118.794C145.518 118.449 145.094 117.098 145.012 111.496C144.902 103.978 142.947 100.746 136.479 97.4035L132.915 95.5623L135.867 93.2937C139.819 90.2579 140.26 90.3407 144.908 94.9863Z" fill="white"/>
<path d="M195.348 93.4776C196.95 94.8122 198.047 96.0262 197.785 96.1772C197.522 96.3282 195.12 97.5472 192.447 98.8867C186.147 102.044 183.71 106.899 185.349 113.034C186.47 117.232 186.355 117.591 183.736 118.091C179.958 118.813 179.639 118.304 179.639 111.548C179.639 104.122 181.279 99.8681 186.046 94.9291C190.474 90.3407 191.404 90.1958 195.348 93.4776Z" fill="white"/>
<path d="M225.588 108.855C226.323 110.768 225.125 117.681 223.657 119.992C222.816 121.317 221.707 121.339 217.599 120.109C212.643 118.625 212.581 118.536 213.307 113.992C213.713 111.456 213.49 107.789 212.811 105.843L211.578 102.306L218.271 104.771C221.954 106.126 225.246 107.963 225.588 108.855Z" fill="white"/>
<path d="M145.28 122.199L148.085 122.949L145.28 125.954C136.757 135.082 121.303 135.962 112.311 127.831C110.164 125.889 110.185 125.76 112.875 124.268C116.416 122.303 119.331 122.257 124.388 124.084C127.72 125.289 129.085 125.198 132.394 123.553C136.67 121.427 140.783 120.994 145.28 122.199Z" fill="#49D0EE"/>
<path d="M113.309 148.689C114.572 153.717 113.47 157.303 110.532 157.721C106.803 158.25 105.579 153.221 108.394 148.927C110.972 144.995 112.365 144.927 113.309 148.689Z" fill="#49D0EE"/>
<path d="M196.834 123.312C199.956 124.925 201.495 124.987 207.133 123.726C213.827 122.229 219.849 123.381 219.849 126.16C219.849 128.47 211.185 132.564 204.926 133.209C197.896 133.935 189.281 130.877 184.983 126.132C183.095 124.046 183.034 123.542 184.562 122.576C187.264 120.868 192.74 121.195 196.834 123.312Z" fill="#49D0EE"/>
<path d="M221.059 153.293C221.064 154.417 220.187 156.217 219.111 157.292C214.974 161.426 212.235 154.799 215.036 147.433L216.317 144.07L218.684 147.659C219.986 149.634 221.056 152.168 221.059 153.293Z" fill="#49D0EE"/>
<path d="M128.985 102.626C133.266 106.905 128.688 113.026 123.284 110.248C119.302 108.201 121.557 100.96 126.244 100.75C126.698 100.73 127.931 101.574 128.985 102.626Z" fill="white"/>
<path d="M139.295 113.337C140.348 114.606 140.226 115.377 138.783 116.574C136.454 118.505 133.855 116.469 134.964 113.581C135.867 111.231 137.469 111.141 139.295 113.337Z" fill="white"/>
<path d="M198.395 103.453C200.117 106.198 198.085 109.694 194.453 110.233C190.936 110.757 188.26 105.365 190.624 102.517C192.605 100.132 196.615 100.616 198.395 103.453Z" fill="white"/>
<path d="M207.055 115.326C207.055 116.312 206.096 117.303 204.923 117.53C203.426 117.817 202.79 117.16 202.79 115.326C202.79 113.492 203.426 112.834 204.923 113.122C206.096 113.348 207.055 114.339 207.055 115.326Z" fill="white"/>
</g>
<defs>
<filter id="filter0_d_2106_44" x="0" y="0" width="286" height="296" filterUnits="userSpaceOnUse" color-interpolation-filters="sRGB">
<feFlood flood-opacity="0" result="BackgroundImageFix"/>
<feColorMatrix in="SourceAlpha" type="matrix" values="0 0 0 0 0 0 0 0 0 0 0 0 0 0 0 0 0 0 127 0" result="hardAlpha"/>
<feOffset dy="4"/>
<feGaussianBlur stdDeviation="10"/>
<feComposite in2="hardAlpha" operator="out"/>
<feColorMatrix type="matrix" values="0 0 0 0 0 0 0 0 0 0 0 0 0 0 0 0 0 0 0.25 0"/>
<feBlend mode="normal" in2="BackgroundImageFix" result="effect1_dropShadow_2106_44"/>
<feBlend mode="normal" in="SourceGraphic" in2="effect1_dropShadow_2106_44" result="shape"/>
</filter>
</defs>
</svg>
