<svg width="293" height="296" viewBox="0 0 293 296" fill="none" xmlns="http://www.w3.org/2000/svg">
<g filter="url(#filter0_d_2106_29)">
<path fill-rule="evenodd" clip-rule="evenodd" d="M146.501 16.3249C123.023 20.8437 107.502 28.7992 92.0299 44.2446C72.6661 63.5757 64.2178 83.7024 59.3516 122.095C53.5149 168.148 47.4888 185.652 29.9674 207.44C25.7553 212.677 21.6598 219.066 20.8674 221.637C17.9254 231.17 22.5867 240.54 33.0399 246.108C37.5464 248.508 39.9136 248.856 49.2018 248.478C75.6773 247.404 71.921 246.426 83.4036 257.387C99.6243 272.869 109.23 274.707 130.211 266.339C143.072 261.21 147.266 261.308 159.193 267.017C175.638 274.889 182.648 273.841 199.846 260.949C206.25 256.147 212.063 255.815 221.198 259.726C232.536 264.581 243.077 262.433 249.557 253.946C254.457 247.527 261.194 232.528 264.729 220.161C275.206 183.511 275.78 134.899 266.163 98.6324C255.736 59.3102 228.178 29.6088 192.569 19.3191C185.508 17.279 178.609 16.4387 166.344 16.1292C157.191 15.8977 148.261 15.9859 146.501 16.3249ZM185.207 23.7828C196.087 26.0864 212.642 33.8602 222.918 41.4896C234.146 49.8275 244.237 62.5883 251.437 77.5503C261.116 97.6641 265.132 116.545 266.402 147.896C267.896 184.806 262.136 217.178 249.818 241.1C242.052 256.181 235.996 258.763 221.293 253.267C210.618 249.277 203.582 250.297 194.491 257.154C180.446 267.748 175.359 268.223 159.128 260.453C153.984 257.989 147.998 255.974 145.828 255.974C143.658 255.974 135.895 257.988 128.577 260.45C114.893 265.055 107.109 265.932 100.815 263.58C98.8331 262.839 93.1783 258.259 88.2493 253.401C75.886 241.219 72.3934 239.931 57.3211 241.998C43.0604 243.955 36.8436 242.604 30.3822 236.149C23.6621 229.435 24.3816 225.115 34.4111 211.983C52.999 187.646 59.719 168.758 65.1767 125.514C68.883 96.1472 72.8812 81.8094 81.3257 67.611C94.5712 45.3369 116.562 29.1228 140.739 23.8059C151.038 21.5407 174.561 21.5292 185.207 23.7828ZM122.361 82.1164C107.49 88.0664 101.616 106.214 110.12 119.932C115.451 128.531 122.849 132.259 133.331 131.631C139.834 131.241 142.168 130.452 146.133 127.3C161.637 114.978 159.692 92.0454 142.391 83.1818C137.31 80.5777 127.508 80.0572 122.361 82.1164ZM193.87 82.1778C189.723 83.8213 182.659 90.6078 180.19 95.321C177.692 100.088 177.689 112.56 180.185 117.335C188.411 133.078 209.192 136.756 221.043 124.57C226.725 118.728 228.436 114.505 228.436 106.328C228.436 95.5627 223.885 88.225 214.085 83.1882C208.943 80.547 199.215 80.0597 193.87 82.1778ZM139.56 87.0099C153.314 93.2515 156.577 110.586 145.988 121.165C135.841 131.302 119.437 128.765 113.305 116.109C108.953 107.128 110.139 98.915 116.817 91.7832C123.555 84.5862 130.846 83.0565 139.56 87.0099ZM211.254 87.0099C225.254 93.3628 228.462 110.396 217.686 121.161C209.138 129.701 196.346 129.338 188.196 120.326C178.161 109.229 181.756 93.3334 195.738 86.9894C202.228 84.0426 204.722 84.0464 211.254 87.0099ZM123.358 97.2766C120.334 100.298 119.615 102.116 119.615 106.755C119.615 111.595 120.234 113.015 123.555 115.807C127.751 119.336 134.402 120.2 138.889 117.801C142.802 115.71 145.563 109.198 144.635 104.255C143.84 100.019 141.38 98.1451 141.38 101.776C141.38 104.501 139.218 105.352 136.285 103.784C132.973 102.014 132.986 99.2974 136.316 96.9671C138.609 95.3619 138.676 95.0358 136.851 94.3361C132.049 92.4956 127.055 93.5841 123.358 97.2766ZM193.582 95.532C182.251 101.674 187.2 119.118 200.271 119.118C209.404 119.118 215.519 110.346 212.274 101.899C211.574 100.076 211.248 100.143 209.641 102.434C207.513 105.469 205.039 105.787 202.966 103.293C201.195 101.161 202.424 97.3751 204.889 97.3751C207.739 97.3751 206.947 95.1892 203.792 94.3438C199.509 93.1978 197.443 93.4383 193.582 95.532Z" fill="black"/>
<path fill-rule="evenodd" clip-rule="evenodd" d="M185.207 23.7828C196.087 26.0864 212.642 33.8602 222.918 41.4896C234.146 49.8275 244.237 62.5883 251.437 77.5503C261.116 97.6641 265.132 116.545 266.402 147.896C267.896 184.806 262.136 217.178 249.818 241.1C242.052 256.181 235.996 258.763 221.293 253.267C210.618 249.277 203.582 250.297 194.491 257.154C180.446 267.748 175.359 268.223 159.128 260.453C153.984 257.989 147.998 255.974 145.828 255.974C143.658 255.974 135.895 257.988 128.577 260.45C114.893 265.055 107.109 265.932 100.815 263.58C98.8331 262.839 93.1783 258.259 88.2493 253.401C75.886 241.219 72.3934 239.931 57.3211 241.998C43.0604 243.955 36.8436 242.604 30.3822 236.149C23.6621 229.435 24.3816 225.115 34.4111 211.983C52.999 187.646 59.719 168.758 65.1767 125.514C68.883 96.1472 72.8812 81.8094 81.3257 67.611C94.5712 45.3369 116.562 29.1228 140.739 23.8059C151.038 21.5407 174.561 21.5292 185.207 23.7828ZM110.12 119.932C101.616 106.214 107.49 88.0664 122.361 82.1164C127.508 80.0572 137.31 80.5777 142.391 83.1818C159.692 92.0454 161.637 114.978 146.133 127.3C142.168 130.452 139.834 131.241 133.331 131.631C122.849 132.259 115.451 128.531 110.12 119.932ZM180.19 95.321C182.659 90.6078 189.723 83.8213 193.87 82.1778C199.215 80.0597 208.943 80.547 214.085 83.1882C223.885 88.225 228.436 95.5627 228.436 106.328C228.436 114.505 226.725 118.728 221.043 124.57C209.192 136.756 188.411 133.078 180.185 117.335C177.689 112.56 177.692 100.088 180.19 95.321Z" fill="white"/>
<path fill-rule="evenodd" clip-rule="evenodd" d="M211.254 87.0099C225.254 93.3628 228.462 110.396 217.686 121.161C209.138 129.701 196.346 129.338 188.196 120.326C178.161 109.229 181.756 93.3334 195.738 86.9894C202.228 84.0426 204.722 84.0464 211.254 87.0099ZM200.271 119.118C187.2 119.118 182.251 101.674 193.582 95.532C197.443 93.4383 199.509 93.1978 203.792 94.3438C206.947 95.1892 207.739 97.3751 204.889 97.3751C202.424 97.3751 201.195 101.161 202.966 103.293C205.039 105.787 207.513 105.469 209.641 102.434C211.248 100.143 211.574 100.076 212.274 101.899C215.519 110.346 209.404 119.118 200.271 119.118Z" fill="white"/>
<path fill-rule="evenodd" clip-rule="evenodd" d="M139.56 87.0099C153.314 93.2515 156.577 110.586 145.988 121.165C135.841 131.302 119.437 128.765 113.305 116.109C108.953 107.128 110.139 98.915 116.817 91.7832C123.555 84.5862 130.846 83.0565 139.56 87.0099ZM119.615 106.755C119.615 102.116 120.334 100.298 123.358 97.2766C127.055 93.5841 132.049 92.4956 136.851 94.3361C138.676 95.0358 138.609 95.3619 136.316 96.9671C132.986 99.2974 132.973 102.014 136.285 103.784C139.218 105.352 141.38 104.501 141.38 101.776C141.38 98.1451 143.84 100.019 144.635 104.255C145.563 109.198 142.802 115.71 138.889 117.801C134.402 120.2 127.751 119.336 123.555 115.807C120.234 113.015 119.615 111.595 119.615 106.755Z" fill="white"/>
</g>
<defs>
<filter id="filter0_d_2106_29" x="0" y="0" width="293" height="296" filterUnits="userSpaceOnUse" color-interpolation-filters="sRGB">
<feFlood flood-opacity="0" result="BackgroundImageFix"/>
<feColorMatrix in="SourceAlpha" type="matrix" values="0 0 0 0 0 0 0 0 0 0 0 0 0 0 0 0 0 0 127 0" result="hardAlpha"/>
<feOffset dy="4"/>
<feGaussianBlur stdDeviation="10"/>
<feComposite in2="hardAlpha" operator="out"/>
<feColorMatrix type="matrix" values="0 0 0 0 0 0 0 0 0 0 0 0 0 0 0 0 0 0 0.25 0"/>
<feBlend mode="normal" in2="BackgroundImageFix" result="effect1_dropShadow_2106_29"/>
<feBlend mode="normal" in="SourceGraphic" in2="effect1_dropShadow_2106_29" result="shape"/>
</filter>
</defs>
</svg>
