<svg width="292" height="296" viewBox="0 0 292 296" fill="none" xmlns="http://www.w3.org/2000/svg">
<g filter="url(#filter0_d_2106_59)">
<path fill-rule="evenodd" clip-rule="evenodd" d="M140.845 17.7479C120.77 21.8519 106.735 29.5021 91.7137 44.5282C72.2991 63.9506 64.3679 82.8036 59.2247 121.765C53.0122 168.819 48.0284 183.198 29.3398 207.985C24.6521 214.203 20.8345 220.684 20.356 223.239C18.2788 234.314 25.4074 243.819 38.7128 247.713C44.7161 249.471 47.1288 249.534 56.2722 248.173C62.1019 247.305 68.3731 246.973 70.2066 247.433C72.0414 247.893 78.2513 252.782 84.007 258.297C99.1804 272.835 105.971 274.139 127.435 266.638C134.445 264.187 142.198 262.183 144.663 262.183C147.177 262.183 153.162 264.132 158.287 266.619C163.312 269.058 169.627 271.394 172.317 271.81C178.74 272.802 186.71 269.887 195.286 263.41C205.654 255.578 207.174 255.281 217.908 258.988C232.972 264.19 239.83 263.027 247.825 253.915C263.201 236.394 273.844 188.108 271.733 145.443C269.462 99.5555 258.674 68.7082 237.322 47.0493C222.004 31.5114 203.705 21.5379 183.375 17.647C171.697 15.4118 152.047 15.4578 140.845 17.7479ZM194.767 26.9095C233.302 40.4484 256.439 72.2646 263.599 121.565C265.997 138.072 265.619 179.567 262.928 195.165C258.429 221.251 249.505 244.332 241.047 251.763C235.548 256.593 231.224 256.907 220.59 253.247C212.26 250.38 204.567 249.969 200.41 252.168C198.878 252.98 195.327 255.494 192.52 257.755C180.324 267.576 175.273 268.066 159.984 260.906C146.767 254.718 142.228 254.549 129.361 259.773C123.694 262.073 116.381 263.939 111.429 264.349C100.792 265.231 95.0298 262.526 86.6546 252.719C83.3359 248.833 78.1352 244.489 74.9594 242.951C69.4844 240.298 68.7291 240.251 57.2521 241.827C43.2692 243.747 37.3539 242.601 30.7395 236.689C27.2945 233.609 26.6489 232.135 26.6489 227.343C26.6489 222.307 27.5918 220.421 34.8404 210.962C53.4141 186.725 59.0677 170.16 65.5073 121.126C68.7342 96.5519 71.5374 86.5017 79.3907 71.3442C89.1401 52.5282 107.485 35.7801 126.809 28.0558C138.15 23.5229 147.268 22.2502 165.725 22.6216C181.882 22.9472 184.656 23.3569 194.767 26.9095ZM137.507 98.676C134.618 99.9883 130.312 101.468 127.937 101.964C122.451 103.112 117.561 106.178 118.582 107.831C119.285 108.969 121.426 108.678 126.555 106.748C127.761 106.294 127.995 107 127.409 109.336C126.237 114.01 128.981 114.933 132.973 111.209C137.766 106.741 141.264 105.17 146.419 105.17C152.361 105.17 155.91 106.675 161.17 111.429C170.994 120.303 172.72 111.61 162.968 102.379C156.041 95.8217 146.761 94.4724 137.507 98.676ZM201.839 98.8394C196.637 101.586 190.606 108.671 190.606 112.032C190.606 115.965 194.421 115.89 198.665 111.874C204.024 106.802 207.406 105.168 212.531 105.176C216.516 105.182 218.578 106.173 226.875 112.062C229.406 113.856 230.662 114.113 231.727 113.048C232.789 111.985 232.607 111 231.022 109.248C227.878 105.772 228.37 105.25 233.348 106.779C235.804 107.534 238.243 107.72 238.77 107.194C240.15 105.813 235.494 102.765 229.546 101.155C226.726 100.392 222.253 98.9722 219.608 98.0007C213.071 95.6008 207.467 95.8651 201.839 98.8394ZM147.474 141.293C145.231 143.607 143.396 146.159 143.396 146.962C143.396 149.215 145.698 150.115 148.068 148.789C149.655 147.9 151.522 148.544 155.303 151.286C168.633 160.945 187.07 161.051 198.186 151.531C203.749 146.767 205.074 142.189 200.889 142.189C199.526 142.189 198.043 142.786 197.592 143.518C197.14 144.248 194.464 146.302 191.646 148.083C180.034 155.416 154.58 149.556 156.953 140.096C158.132 135.394 152.5 136.105 147.474 141.293Z" fill="black"/>
<path fill-rule="evenodd" clip-rule="evenodd" d="M194.767 26.9095C233.302 40.4484 256.439 72.2646 263.599 121.565C265.997 138.072 265.619 179.567 262.928 195.165C258.429 221.251 249.505 244.332 241.047 251.763C235.548 256.593 231.224 256.907 220.59 253.247C212.26 250.38 204.567 249.969 200.41 252.168C198.878 252.98 195.327 255.494 192.52 257.755C180.324 267.576 175.273 268.066 159.984 260.906C146.767 254.718 142.228 254.549 129.361 259.773C123.694 262.073 116.381 263.939 111.429 264.349C100.792 265.231 95.0298 262.526 86.6546 252.719C83.3359 248.833 78.1352 244.489 74.9594 242.951C69.4844 240.298 68.7291 240.251 57.2521 241.827C43.2692 243.747 37.3539 242.601 30.7395 236.689C27.2945 233.609 26.6489 232.135 26.6489 227.343C26.6489 222.307 27.5918 220.421 34.8404 210.962C53.4141 186.725 59.0677 170.16 65.5073 121.126C68.7342 96.5519 71.5374 86.5017 79.3907 71.3442C89.1401 52.5282 107.485 35.7801 126.809 28.0558C138.15 23.5229 147.268 22.2502 165.725 22.6216C181.882 22.9472 184.656 23.3569 194.767 26.9095ZM127.937 101.964C130.312 101.468 134.618 99.9883 137.507 98.676C146.761 94.4724 156.041 95.8217 162.968 102.379C172.72 111.61 170.994 120.303 161.17 111.429C155.91 106.675 152.361 105.17 146.419 105.17C141.264 105.17 137.766 106.741 132.973 111.209C128.981 114.933 126.237 114.01 127.409 109.336C127.995 107 127.761 106.294 126.555 106.748C121.426 108.678 119.285 108.969 118.582 107.831C117.561 106.178 122.451 103.112 127.937 101.964ZM190.606 112.032C190.606 108.671 196.637 101.586 201.839 98.8394C207.467 95.8651 213.071 95.6008 219.608 98.0007C222.253 98.9722 226.726 100.392 229.546 101.155C235.494 102.765 240.15 105.813 238.77 107.194C238.243 107.72 235.804 107.534 233.348 106.779C228.37 105.25 227.878 105.772 231.022 109.248C232.607 111 232.789 111.985 231.727 113.048C230.662 114.113 229.406 113.856 226.875 112.062C218.578 106.173 216.516 105.182 212.531 105.176C207.406 105.168 204.024 106.802 198.665 111.874C194.421 115.89 190.606 115.965 190.606 112.032ZM143.396 146.962C143.396 146.159 145.231 143.607 147.474 141.293C152.5 136.105 158.132 135.394 156.953 140.096C154.58 149.556 180.034 155.416 191.646 148.083C194.464 146.302 197.14 144.248 197.592 143.518C198.043 142.786 199.526 142.189 200.889 142.189C205.074 142.189 203.749 146.767 198.186 151.531C187.07 161.051 168.633 160.945 155.303 151.286C151.522 148.544 149.655 147.9 148.068 148.789C145.698 150.115 143.396 149.215 143.396 146.962Z" fill="white"/>
</g>
<defs>
<filter id="filter0_d_2106_59" x="0" y="0" width="292" height="296" filterUnits="userSpaceOnUse" color-interpolation-filters="sRGB">
<feFlood flood-opacity="0" result="BackgroundImageFix"/>
<feColorMatrix in="SourceAlpha" type="matrix" values="0 0 0 0 0 0 0 0 0 0 0 0 0 0 0 0 0 0 127 0" result="hardAlpha"/>
<feOffset dy="4"/>
<feGaussianBlur stdDeviation="10"/>
<feComposite in2="hardAlpha" operator="out"/>
<feColorMatrix type="matrix" values="0 0 0 0 0 0 0 0 0 0 0 0 0 0 0 0 0 0 0.25 0"/>
<feBlend mode="normal" in2="BackgroundImageFix" result="effect1_dropShadow_2106_59"/>
<feBlend mode="normal" in="SourceGraphic" in2="effect1_dropShadow_2106_59" result="shape"/>
</filter>
</defs>
</svg>
