<svg width="291" height="296" viewBox="0 0 291 296" fill="none" xmlns="http://www.w3.org/2000/svg">
<g filter="url(#filter0_d_2106_37)">
<path fill-rule="evenodd" clip-rule="evenodd" d="M143.496 17.1237C134.492 18.6367 118.441 24.2865 111.415 28.4144C98.0998 36.2398 83.2393 51.1527 75.3492 64.6049C66.0267 80.5009 62.7307 92.7414 57.3769 131.353C52.1177 169.271 46.5285 184.614 29.9324 206.683C25.7079 212.301 21.6139 218.997 20.835 221.563C17.0773 233.934 26.3397 245.898 41.8474 248.709C44.5052 249.191 51.2582 248.917 56.8538 248.1C62.4506 247.283 68.5808 247.003 70.4788 247.479C72.3756 247.954 78.1054 252.554 83.2111 257.701C94.2987 268.877 100.456 271.753 111.473 270.903C115.541 270.588 122.612 268.768 127.184 266.857C131.756 264.947 138.375 263.066 141.892 262.678C147.411 262.068 149.569 262.586 157.635 266.466C174.216 274.44 181.473 273.957 195.059 263.973C206.076 255.877 208.254 255.441 218.826 259.22C229.906 263.181 237.728 262.778 244.112 257.917C253.275 250.939 264.128 225.55 268.738 200.299C270.617 190.013 271.056 181.201 270.995 154.973C270.911 118.898 269.327 107.445 261.393 85.557C248.642 50.3751 218.835 24.3133 183.667 17.5961C173.65 15.6822 153.483 15.446 143.496 17.1237ZM186.772 24.7334C209.677 30.4981 229.969 44.4648 242.762 63.2732C259.118 87.3164 265.839 114.966 265.831 158.165C265.825 189.919 260.875 215.913 250.758 237.326C242.289 255.253 236.846 258.292 221.843 253.469C208.052 249.034 205.008 249.546 191.786 258.527C181.11 265.779 179.908 266.281 174.531 265.742C171.353 265.423 164.254 262.988 158.757 260.33C149.892 256.045 148.012 255.584 142.13 256.246C138.483 256.657 131.181 258.724 125.905 260.841C114.375 265.467 105.073 265.962 98.0359 262.324C95.4267 260.976 89.6713 256.109 85.2473 251.509C75.2853 241.15 70.6758 239.414 58.8925 241.582C43.2671 244.456 35.8631 242.915 29.6011 235.486C24.7563 229.738 25.0352 224.469 30.5949 216.717C52.4528 186.246 58.0893 172.416 62.6668 138.021C68.3173 95.5529 71.0608 84.8675 80.6775 67.8543C92.48 46.9712 116.378 28.9812 138.695 24.1793C151.536 21.4163 174.65 21.6831 186.772 24.7334ZM134.218 50.859C128.263 53.0308 119.51 61.773 119.51 65.5484C119.51 69.2805 121.705 68.7762 127.258 63.7686C132.475 59.0636 138.999 56.6799 146.689 56.6684C149.906 56.6633 151.485 56.0823 151.485 54.9013C151.485 50.144 142.163 47.962 134.218 50.859ZM201.304 51.3467C197.185 54.6753 199.168 56.6607 206.608 56.6607C213.445 56.6607 220.844 59.7033 224.905 64.1861C229.653 69.426 233.57 66.626 229.979 60.5588C224.257 50.8884 208.236 45.7429 201.304 51.3467ZM133.257 76.3577C121.129 80.6771 114.16 90.659 114.223 103.618C114.264 112.08 115.761 116.786 120.312 122.741C129.742 135.082 150.634 135.795 161.247 124.135C174.336 109.756 170.465 86.1366 153.648 77.7698C146.452 74.191 140.497 73.7773 133.257 76.3577ZM202.18 76.4062C191.482 80.2136 184.483 91.0701 184.483 103.856C184.483 129.162 213.793 141.944 230.452 123.903C236.833 116.991 238.878 110.95 238.237 100.9C237.055 82.3867 219.289 70.3172 202.18 76.4062ZM153.775 83.0621C161.77 88.9724 165.268 97.9456 163.685 108.48C162.528 116.188 153.251 126.223 146.049 127.557C133.129 129.95 121.469 121.376 118.876 107.573C117.092 98.0746 123.843 85.4638 132.915 81.3512C138.266 78.9253 149.419 79.8408 153.775 83.0621ZM220.459 81.8798C222.871 83.1068 226.612 86.3192 228.773 89.0183C232.405 93.5548 232.7 94.6783 232.7 103.926C232.7 115.046 230.975 118.674 223.167 123.981C213.476 130.565 201.785 128.255 194.138 118.247C179.314 98.8458 199.365 71.142 220.459 81.8798ZM141.188 102.159C140.213 104.716 140.382 106.247 141.887 108.543C144.472 112.479 148.328 112.385 150.997 108.318C154.081 103.618 151.735 98.7947 146.365 98.7947C143.332 98.7947 142.184 99.5403 141.188 102.159ZM202.9 100.327C202.056 101.17 201.365 103.481 201.365 105.461C201.365 108.108 202.253 109.467 204.712 110.586C207.668 111.93 208.343 111.76 210.468 109.14C214.566 104.091 212.852 98.7947 207.121 98.7947C205.643 98.7947 203.744 99.4842 202.9 100.327ZM170.391 142.531C163.35 148.335 162.177 158.974 167.876 165.342C170.836 168.648 172.438 169.367 176.856 169.367C186.286 169.367 191.537 160.845 188.666 150.203C186.053 140.516 177.293 136.839 170.391 142.531Z" fill="black"/>
<path fill-rule="evenodd" clip-rule="evenodd" d="M186.772 24.7334C209.677 30.4981 229.969 44.4648 242.762 63.2732C259.118 87.3164 265.839 114.966 265.831 158.165C265.825 189.919 260.875 215.913 250.758 237.326C242.289 255.253 236.846 258.292 221.843 253.469C208.052 249.034 205.008 249.546 191.786 258.527C181.11 265.779 179.908 266.281 174.531 265.742C171.353 265.423 164.254 262.988 158.757 260.33C149.892 256.045 148.012 255.584 142.13 256.246C138.483 256.657 131.181 258.724 125.905 260.841C114.375 265.467 105.073 265.962 98.0359 262.324C95.4267 260.976 89.6713 256.109 85.2473 251.509C75.2853 241.15 70.6758 239.414 58.8925 241.582C43.2671 244.456 35.8631 242.915 29.6011 235.486C24.7563 229.738 25.0352 224.469 30.5949 216.717C52.4528 186.246 58.0893 172.416 62.6668 138.021C68.3173 95.5529 71.0608 84.8675 80.6775 67.8543C92.48 46.9712 116.378 28.9812 138.695 24.1793C151.536 21.4163 174.65 21.6831 186.772 24.7334ZM119.51 65.5484C119.51 61.773 128.263 53.0308 134.218 50.859C142.163 47.962 151.485 50.144 151.485 54.9013C151.485 56.0823 149.906 56.6633 146.689 56.6684C138.999 56.6799 132.475 59.0636 127.258 63.7686C121.705 68.7762 119.51 69.2805 119.51 65.5484ZM206.608 56.6607C199.168 56.6607 197.185 54.6753 201.304 51.3467C208.236 45.7429 224.257 50.8884 229.979 60.5588C233.57 66.626 229.653 69.426 224.905 64.1861C220.844 59.7033 213.445 56.6607 206.608 56.6607ZM114.223 103.618C114.16 90.659 121.129 80.6771 133.257 76.3577C140.497 73.7773 146.452 74.191 153.648 77.7698C170.465 86.1366 174.336 109.756 161.247 124.135C150.634 135.795 129.742 135.082 120.312 122.741C115.761 116.786 114.264 112.08 114.223 103.618ZM184.483 103.856C184.483 91.0701 191.482 80.2136 202.18 76.4062C219.289 70.3172 237.055 82.3867 238.237 100.9C238.878 110.95 236.833 116.991 230.452 123.903C213.793 141.944 184.483 129.162 184.483 103.856ZM167.876 165.342C162.177 158.974 163.35 148.335 170.391 142.531C177.293 136.839 186.053 140.516 188.666 150.203C191.537 160.845 186.286 169.367 176.856 169.367C172.438 169.367 170.836 168.648 167.876 165.342Z" fill="white"/>
<path fill-rule="evenodd" clip-rule="evenodd" d="M153.775 83.0621C161.77 88.9724 165.268 97.9456 163.685 108.48C162.528 116.188 153.251 126.223 146.049 127.557C133.129 129.95 121.469 121.376 118.876 107.573C117.092 98.0746 123.843 85.4638 132.915 81.3512C138.266 78.9253 149.419 79.8408 153.775 83.0621ZM141.887 108.543C140.382 106.247 140.213 104.716 141.188 102.159C142.184 99.5403 143.332 98.7947 146.365 98.7947C151.735 98.7947 154.081 103.618 150.997 108.318C148.328 112.385 144.472 112.479 141.887 108.543Z" fill="white"/>
<path fill-rule="evenodd" clip-rule="evenodd" d="M220.459 81.8798C222.871 83.1068 226.612 86.3192 228.773 89.0183C232.405 93.5548 232.7 94.6783 232.7 103.926C232.7 115.046 230.975 118.674 223.167 123.981C213.476 130.565 201.785 128.255 194.138 118.247C179.314 98.8458 199.365 71.142 220.459 81.8798ZM201.365 105.461C201.365 103.481 202.056 101.17 202.9 100.327C203.744 99.4842 205.643 98.7947 207.121 98.7947C212.852 98.7947 214.566 104.091 210.468 109.14C208.343 111.76 207.668 111.93 204.712 110.586C202.253 109.467 201.365 108.108 201.365 105.461Z" fill="white"/>
</g>
<defs>
<filter id="filter0_d_2106_37" x="0" y="0" width="291" height="296" filterUnits="userSpaceOnUse" color-interpolation-filters="sRGB">
<feFlood flood-opacity="0" result="BackgroundImageFix"/>
<feColorMatrix in="SourceAlpha" type="matrix" values="0 0 0 0 0 0 0 0 0 0 0 0 0 0 0 0 0 0 127 0" result="hardAlpha"/>
<feOffset dy="4"/>
<feGaussianBlur stdDeviation="10"/>
<feComposite in2="hardAlpha" operator="out"/>
<feColorMatrix type="matrix" values="0 0 0 0 0 0 0 0 0 0 0 0 0 0 0 0 0 0 0.25 0"/>
<feBlend mode="normal" in2="BackgroundImageFix" result="effect1_dropShadow_2106_37"/>
<feBlend mode="normal" in="SourceGraphic" in2="effect1_dropShadow_2106_37" result="shape"/>
</filter>
</defs>
</svg>
